<svg xmlns="http://www.w3.org/2000/svg" xmlns:xlink="http://www.w3.org/1999/xlink" viewBox="0 0 850 500" style="background: #000;"><style>
@keyframes a0_o { 0% { opacity: 1; } 88.012% { opacity: 1; } 88.476% { opacity: 0; } 100% { opacity: 0; } }
@keyframes a0_do { 0% { stroke-dashoffset: 1000px; animation-timing-function: cubic-bezier(0,0,.2,1); } 11.06% { stroke-dashoffset: 2000px; animation-timing-function: cubic-bezier(0,0,.2,1); } 77.881% { stroke-dashoffset: 2000px; animation-timing-function: cubic-bezier(.8,0,1,1); } 88.476% { stroke-dashoffset: 1000px; } 100% { stroke-dashoffset: 1000px; } }
@keyframes a1_o { 0% { opacity: 1; } 88.012% { opacity: 1; } 88.476% { opacity: 0; } 100% { opacity: 0; } }
@keyframes a1_do { 0% { stroke-dashoffset: 1000px; animation-timing-function: cubic-bezier(0,0,.2,1); } 11.06% { stroke-dashoffset: 2000px; animation-timing-function: cubic-bezier(0,0,.2,1); } 77.881% { stroke-dashoffset: 2000px; animation-timing-function: cubic-bezier(.8,0,1,1); } 88.476% { stroke-dashoffset: 1000px; } 100% { stroke-dashoffset: 1000px; } }
@keyframes a2_o { 0% { opacity: 1; } 88.012% { opacity: 1; } 88.476% { opacity: 0; } 100% { opacity: 0; } }
@keyframes a2_do { 0% { stroke-dashoffset: 1000px; animation-timing-function: cubic-bezier(0,0,.2,1); } 11.06% { stroke-dashoffset: 2000px; animation-timing-function: cubic-bezier(0,0,.2,1); } 77.881% { stroke-dashoffset: 2000px; animation-timing-function: cubic-bezier(.8,0,1,1); } 88.476% { stroke-dashoffset: 1000px; } 100% { stroke-dashoffset: 1000px; } }
@keyframes a3_o { 0% { opacity: 1; } 88.012% { opacity: 1; } 88.476% { opacity: 0; } 100% { opacity: 0; } }
@keyframes a3_do { 0% { stroke-dashoffset: 1000px; animation-timing-function: cubic-bezier(0,0,.2,1); } 11.06% { stroke-dashoffset: 2000px; animation-timing-function: cubic-bezier(0,0,.2,1); } 77.881% { stroke-dashoffset: 2000px; animation-timing-function: cubic-bezier(.8,0,1,1); } 88.476% { stroke-dashoffset: 1000px; } 100% { stroke-dashoffset: 1000px; } }
@keyframes a4_o { 0% { opacity: 1; } 88.012% { opacity: 1; } 88.476% { opacity: 0; } 100% { opacity: 0; } }
@keyframes a4_do { 0% { stroke-dashoffset: 1600px; animation-timing-function: cubic-bezier(0,0,.2,1); } 11.06% { stroke-dashoffset: 3200px; animation-timing-function: cubic-bezier(0,0,.2,1); } 77.881% { stroke-dashoffset: 3200px; animation-timing-function: cubic-bezier(.8,0,1,1); } 88.476% { stroke-dashoffset: 1600px; } 100% { stroke-dashoffset: 1600px; } }
@keyframes a5_o { 0% { opacity: 1; } 88.012% { opacity: 1; } 88.476% { opacity: 0; } 100% { opacity: 0; } }
@keyframes a5_do { 0% { stroke-dashoffset: 1600px; animation-timing-function: cubic-bezier(0,0,.2,1); } 11.06% { stroke-dashoffset: 3200px; animation-timing-function: cubic-bezier(0,0,.2,1); } 77.881% { stroke-dashoffset: 3200px; animation-timing-function: cubic-bezier(.8,0,1,1); } 88.476% { stroke-dashoffset: 1600px; } 100% { stroke-dashoffset: 1600px; } }
@keyframes a6_o { 0% { opacity: 1; } 88.012% { opacity: 1; } 88.476% { opacity: 0; } 100% { opacity: 0; } }
@keyframes a6_do { 0% { stroke-dashoffset: 1000px; animation-timing-function: cubic-bezier(0,0,.2,1); } 11.06% { stroke-dashoffset: 2000px; animation-timing-function: cubic-bezier(0,0,.2,1); } 77.881% { stroke-dashoffset: 2000px; animation-timing-function: cubic-bezier(.8,0,1,1); } 88.476% { stroke-dashoffset: 1000px; } 100% { stroke-dashoffset: 1000px; } }
@keyframes a7_o { 0% { opacity: 1; } 88.012% { opacity: 1; } 88.476% { opacity: 0; } 100% { opacity: 0; } }
@keyframes a7_do { 0% { stroke-dashoffset: 1000px; animation-timing-function: cubic-bezier(0,0,.2,1); } 11.06% { stroke-dashoffset: 2000px; animation-timing-function: cubic-bezier(0,0,.2,1); } 77.881% { stroke-dashoffset: 2000px; animation-timing-function: cubic-bezier(.8,0,1,1); } 88.476% { stroke-dashoffset: 1000px; } 100% { stroke-dashoffset: 1000px; } }
@keyframes a8_o { 0% { opacity: 1; } 88.012% { opacity: 1; } 88.476% { opacity: 0; } 100% { opacity: 0; } }
@keyframes a8_do { 0% { stroke-dashoffset: 1000px; animation-timing-function: cubic-bezier(0,0,.2,1); } 11.06% { stroke-dashoffset: 2000px; animation-timing-function: cubic-bezier(0,0,.2,1); } 77.881% { stroke-dashoffset: 2000px; animation-timing-function: cubic-bezier(.8,0,1,1); } 88.476% { stroke-dashoffset: 1000px; } 100% { stroke-dashoffset: 1000px; } }
@keyframes a9_o { 0% { opacity: 1; } 88.012% { opacity: 1; } 88.476% { opacity: 0; } 100% { opacity: 0; } }
@keyframes a9_do { 0% { stroke-dashoffset: 1000px; animation-timing-function: cubic-bezier(0,0,.2,1); } 11.06% { stroke-dashoffset: 2000px; animation-timing-function: cubic-bezier(0,0,.2,1); } 77.881% { stroke-dashoffset: 2000px; animation-timing-function: cubic-bezier(.8,0,1,1); } 88.476% { stroke-dashoffset: 1000px; } 100% { stroke-dashoffset: 1000px; } }
</style><defs><symbol id="Symbol-1" preserveAspectRatio="none" width="723.4" height="368.8" viewBox="0 0 723.4 368.8" overflow="visible"><g transform="translate(532.5,213.2)"><g transform="translate(-67.5,-67.5)"><g transform="translate(156.2,138.6)"><path fill="none" d="M-88.7 71.1c0 0 155 0 155 0c12.4 0 22.4-10 22.4-22.4c0 0 0-97.4 0-97.4c0-12.4-10-22.4-22.4-22.4c0 0-155 0-155 0" stroke="#fff" stroke-width="27" stroke-miterlimit="10" stroke-linecap="round" stroke-dasharray="1000" stroke-dashoffset="1000" style="animation: 9.04s linear infinite both a0_o, 9.04s linear infinite both a0_do;"/></g></g><g transform="translate(-67.5,-67.5)"><g transform="translate(156.2,138.6)"><path fill="none" d="M-88.7 71.1c0 0 176 0 176 0c.8 0 1.4-0.7 1.4-1.4c0 0 0-139.4 0-139.4c0-0.7-0.6-1.4-1.4-1.4c0 0-176 0-176 0" stroke="#fff" stroke-width="27" stroke-miterlimit="10" stroke-linecap="round" stroke-dasharray="1000" stroke-dashoffset="1000" style="animation: 9.04s linear infinite both a1_o, 9.04s linear infinite both a1_do;"/></g></g></g><g transform="translate(532.5,13.8)"><g transform="translate(-67.5,-67.5)"><g transform="translate(156.2,138.6)"><path fill="none" d="M-88.7 71.1c0 0 176 0 176 0c.8 0 1.4-0.7 1.4-1.4c0 0 0-139.4 0-139.4c0-0.7-0.6-1.4-1.4-1.4c0 0-176 0-176 0" stroke="#fff" stroke-width="27" stroke-miterlimit="10" stroke-linecap="round" stroke-dasharray="1000" stroke-dashoffset="1000" style="animation: 9.04s linear infinite both a2_o, 9.04s linear infinite both a2_do;"/></g></g><g transform="translate(-67.5,-67.5)"><g transform="translate(156.2,138.6)"><path fill="none" d="M-88.7 71.1c0 0 155 0 155 0c12.4 0 22.4-10 22.4-22.4c0 0 0-97.4 0-97.4c0-12.4-10-22.4-22.4-22.4c0 0-155 0-155 0" stroke="#fff" stroke-width="27" stroke-miterlimit="10" stroke-linecap="round" stroke-dasharray="1000" stroke-dashoffset="1000" style="animation: 9.04s linear infinite both a3_o, 9.04s linear infinite both a3_do;"/></g></g></g><g transform="translate(273,13.8)"><g transform="translate(-67.5,-67.5)"><g transform="translate(156,238.3)"><path fill="none" d="M-88.5-170.8c0 0 0 340.1 0 340.1c0 .8 .6 1.5 1.4 1.5c0 0 174.2 0 174.2 0c.8 0 1.4-0.7 1.4-1.5c0 0 0-340.1 0-340.1" stroke="#fff" stroke-width="27" stroke-miterlimit="10" stroke-linecap="round" stroke-dasharray="1600" stroke-dashoffset="1600" style="animation: 9.04s linear infinite both a4_o, 9.04s linear infinite both a4_do;"/></g></g><g transform="translate(-67.5,-67.5)"><g transform="translate(156,238.3)"><path fill="none" d="M-88.5-170.8c0 0 0 319.1 0 319.1c0 12.4 10 22.5 22.3 22.5c0 0 132.4 0 132.4 0c12.3 0 22.3-10.1 22.3-22.5c0 0 0-319.1 0-319.1" stroke="#fff" stroke-width="27" stroke-miterlimit="10" stroke-linecap="round" stroke-dasharray="1600" stroke-dashoffset="1600" style="animation: 9.04s linear infinite both a5_o, 9.04s linear infinite both a5_do;"/></g></g></g><g transform="translate(13.5,213.2)"><g transform="translate(-67.5,-67.5)"><g transform="translate(156,138.5)"><path fill="none" d="M88.5 71c0 0 0-119.6 0-119.6c0-12.4-10-22.4-22.3-22.4c0 0-132.4 0-132.4 0c-12.3 0-22.3 10-22.3 22.4c0 0 0 119.6 0 119.6" stroke="#fff" stroke-width="27" stroke-miterlimit="10" stroke-linecap="round" stroke-dasharray="1000" stroke-dashoffset="1000" style="animation: 9.04s linear infinite both a6_o, 9.04s linear infinite both a6_do;"/></g></g><g transform="translate(-67.5,-67.5)"><g transform="translate(156,138.5)"><path fill="none" d="M88.5 71c0 0 0-140.6 0-140.6c0-0.8-0.6-1.4-1.4-1.4c0 0-174.2 0-174.2 0c-0.8 0-1.4 .6-1.4 1.4c0 0 0 140.6 0 140.6" stroke="#fff" stroke-width="27" stroke-miterlimit="10" stroke-linecap="round" stroke-dasharray="1000" stroke-dashoffset="1000" style="animation: 9.04s linear infinite both a7_o, 9.04s linear infinite both a7_do;"/></g></g></g><g transform="translate(13.5,13.5)"><g transform="translate(-67.5,-67.5)"><g transform="translate(156,138.5)"><path fill="none" d="M-88.5-71c0 0 0 119.6 0 119.6c0 12.4 10 22.4 22.3 22.4c0 0 132.4 0 132.4 0c12.3 0 22.3-10 22.3-22.4c0 0 0-119.6 0-119.6" stroke="#fff" stroke-width="27" stroke-miterlimit="10" stroke-linecap="round" stroke-dasharray="1000" stroke-dashoffset="1000" style="animation: 9.04s linear infinite both a8_o, 9.04s linear infinite both a8_do;"/></g></g><g transform="translate(-67.5,-67.5)"><g transform="translate(156,138.5)"><path fill="none" d="M-88.5-71c0 0 0 140.6 0 140.6c0 .8 .6 1.4 1.4 1.4c0 0 174.2 0 174.2 0c.8 0 1.4-0.6 1.4-1.4c0 0 0-140.6 0-140.6" stroke="#fff" stroke-width="27" stroke-miterlimit="10" stroke-linecap="round" stroke-dasharray="1000" stroke-dashoffset="1000" style="animation: 9.04s linear infinite both a9_o, 9.04s linear infinite both a9_do;"/></g></g></g></symbol></defs><use x="63.3" y="65.6" width="723.4" height="368.8" xlink:href="#Symbol-1"/></svg>