<svg xmlns="http://www.w3.org/2000/svg" viewBox="0 0 850 500" style="background: #000;"><style>
@keyframes a0_o { 0% { opacity: 1; } 88.422% { opacity: 1; } 88.889% { opacity: 0; } 100% { opacity: 0; } }
@keyframes a0_do { 0% { stroke-dashoffset: 1000px; animation-timing-function: cubic-bezier(0,0,.2,1); } 11.111% { stroke-dashoffset: 2000px; animation-timing-function: cubic-bezier(0,0,.2,1); } 78.244% { stroke-dashoffset: 2000px; animation-timing-function: cubic-bezier(.8,0,1,1); } 88.889% { stroke-dashoffset: 1000px; } 100% { stroke-dashoffset: 1000px; } }
@keyframes a1_o { 0% { opacity: 1; } 88.422% { opacity: 1; } 88.889% { opacity: 0; } 100% { opacity: 0; } }
@keyframes a1_do { 0% { stroke-dashoffset: 1000px; animation-timing-function: cubic-bezier(0,0,.2,1); } 11.111% { stroke-dashoffset: 2000px; animation-timing-function: cubic-bezier(0,0,.2,1); } 78.244% { stroke-dashoffset: 2000px; animation-timing-function: cubic-bezier(.8,0,1,1); } 88.889% { stroke-dashoffset: 1000px; } 100% { stroke-dashoffset: 1000px; } }
@keyframes a2_o { 0% { opacity: 1; } 88.422% { opacity: 1; } 88.889% { opacity: 0; } 100% { opacity: 0; } }
@keyframes a2_do { 0% { stroke-dashoffset: 1600px; animation-timing-function: cubic-bezier(0,0,.2,1); } 11.111% { stroke-dashoffset: 3200px; animation-timing-function: cubic-bezier(0,0,.2,1); } 78.244% { stroke-dashoffset: 3200px; animation-timing-function: cubic-bezier(.8,0,1,1); } 88.889% { stroke-dashoffset: 1600px; } 100% { stroke-dashoffset: 1600px; } }
@keyframes a3_o { 0% { opacity: 1; } 88.422% { opacity: 1; } 88.889% { opacity: 0; } 100% { opacity: 0; } }
@keyframes a3_do { 0% { stroke-dashoffset: 1000px; animation-timing-function: cubic-bezier(0,0,.2,1); } 11.111% { stroke-dashoffset: 2000px; animation-timing-function: cubic-bezier(0,0,.2,1); } 78.244% { stroke-dashoffset: 2000px; animation-timing-function: cubic-bezier(.8,0,1,1); } 88.889% { stroke-dashoffset: 1000px; } 100% { stroke-dashoffset: 1000px; } }
@keyframes a4_o { 0% { opacity: 1; } 88.422% { opacity: 1; } 88.889% { opacity: 0; } 100% { opacity: 0; } }
@keyframes a4_do { 0% { stroke-dashoffset: 1000px; animation-timing-function: cubic-bezier(0,0,.2,1); } 11.111% { stroke-dashoffset: 2000px; animation-timing-function: cubic-bezier(0,0,.2,1); } 78.244% { stroke-dashoffset: 2000px; animation-timing-function: cubic-bezier(.8,0,1,1); } 88.889% { stroke-dashoffset: 1000px; } 100% { stroke-dashoffset: 1000px; } }
</style><defs/><g transform="translate(425,250) translate(-361.7,-184.4)"><g transform="translate(621.2,284.2) scale(1,-1) translate(-156.2,-138.6)"><path fill="none" d="M-88.7 71.1c0 0 155 0 155 0c12.4 0 22.4-10 22.4-22.4c0 0 0-97.4 0-97.4c0-12.4-10-22.4-22.4-22.4c0 0-155 0-155 0" stroke="#fff" stroke-width="27" stroke-miterlimit="10" stroke-linecap="round" stroke-dasharray="1000" stroke-dashoffset="1000" transform="translate(156.2,138.6)" style="animation: 9s linear infinite both a0_o, 9s linear infinite both a0_do;"/></g><g transform="translate(465,-53.7)"><path fill="none" d="M-88.7 71.1c0 0 155 0 155 0c12.4 0 22.4-10 22.4-22.4c0 0 0-97.4 0-97.4c0-12.4-10-22.4-22.4-22.4c0 0-155 0-155 0" stroke="#fff" stroke-width="27" stroke-miterlimit="10" stroke-linecap="round" stroke-dasharray="1000" stroke-dashoffset="1000" transform="translate(156.2,138.6)" style="animation: 9s linear infinite both a1_o, 9s linear infinite both a1_do;"/></g><g transform="translate(205.5,-53.7)"><path fill="none" d="M-88.5-170.8c0 0 0 340.1 0 340.1c0 .8 .6 1.5 1.4 1.5c0 0 174.2 0 174.2 0c.8 0 1.4-0.7 1.4-1.5c0 0 0-340.1 0-340.1" stroke="#fff" stroke-width="27" stroke-miterlimit="10" stroke-linecap="round" stroke-dasharray="1600" stroke-dashoffset="1600" transform="translate(156,238.3)" style="animation: 9s linear infinite both a2_o, 9s linear infinite both a2_do;"/></g><g transform="translate(-54,145.7)"><path fill="none" d="M88.5 71c0 0 0-140.6 0-140.6c0-0.8-0.6-1.4-1.4-1.4c0 0-174.2 0-174.2 0c-0.8 0-1.4 .6-1.4 1.4c0 0 0 140.6 0 140.6" stroke="#fff" stroke-width="27" stroke-miterlimit="10" stroke-linecap="round" stroke-dasharray="1000" stroke-dashoffset="1000" transform="translate(156,138.5)" style="animation: 9s linear infinite both a3_o, 9s linear infinite both a3_do;"/></g><g transform="translate(-54,-54)"><path fill="none" d="M-88.5-71c0 0 0 119.6 0 119.6c0 12.4 10 22.4 22.3 22.4c0 0 132.4 0 132.4 0c12.3 0 22.3-10 22.3-22.4c0 0 0-119.6 0-119.6" stroke="#fff" stroke-width="27" stroke-miterlimit="10" stroke-linecap="round" stroke-dasharray="1000" stroke-dashoffset="1000" transform="translate(156,138.5)" style="animation: 9s linear infinite both a4_o, 9s linear infinite both a4_do;"/></g></g></svg>